<svg xmlns="http://www.w3.org/2000/svg" width="24" height="24" viewBox="0 0 24 24"><g fill="none" fill-rule="evenodd"><path d="M0 0h24v24H0z"/><path fill="#335EEA" d="M8 3v.5A1.5 1.5 0 009.5 5h5A1.5 1.5 0 0016 3.5V3h2a2 2 0 012 2v16a2 2 0 01-2 2H6a2 2 0 01-2-2V5a2 2 0 012-2h2z" opacity=".3"/><path fill="#335EEA" d="M11 2a1 1 0 012 0h1.5a.5.5 0 01.5.5v1a.5.5 0 01-.5.5h-5a.5.5 0 01-.5-.5v-1a.5.5 0 01.5-.5H11z"/><rect width="7" height="2" x="10" y="9" fill="#335EEA" opacity=".3" rx="1"/><rect width="2" height="2" x="7" y="9" fill="#335EEA" opacity=".3" rx="1"/><rect width="2" height="2" x="7" y="13" fill="#335EEA" opacity=".3" rx="1"/><rect width="7" height="2" x="10" y="13" fill="#335EEA" opacity=".3" rx="1"/><rect width="2" height="2" x="7" y="17" fill="#335EEA" opacity=".3" rx="1"/><rect width="7" height="2" x="10" y="17" fill="#335EEA" opacity=".3" rx="1"/></g></svg>