<svg xmlns="http://www.w3.org/2000/svg" width="24" height="24" viewBox="0 0 24 24"><g fill="none" fill-rule="evenodd"><path d="M0 0h24v24H0z"/><rect width="2" height="8" x="5" y="8" fill="#335EEA" opacity=".3" rx="1"/><path fill="#335EEA" d="M6 21a2 2 0 100-4 2 2 0 000 4zm0 2a4 4 0 110-8 4 4 0 010 8z"/><rect width="2" height="8" x="17" y="8" fill="#335EEA" opacity=".3" rx="1"/><path fill="#335EEA" d="M18 21a2 2 0 100-4 2 2 0 000 4zm0 2a4 4 0 110-8 4 4 0 010 8zM6 7a2 2 0 100-4 2 2 0 000 4zm0 2a4 4 0 110-8 4 4 0 010 8zM18 7a2 2 0 100-4 2 2 0 000 4zm0 2a4 4 0 110-8 4 4 0 010 8z"/></g></svg>