<svg xmlns="http://www.w3.org/2000/svg" width="24" height="24" viewBox="0 0 24 24"><g fill="none" fill-rule="evenodd"><path d="M0 0h24v24H0z"/><rect width="4" height="4" x="4" y="4" fill="#335EEA" opacity=".3" rx="1"/><path fill="#335EEA" d="M5 10h2a1 1 0 011 1v2a1 1 0 01-1 1H5a1 1 0 01-1-1v-2a1 1 0 011-1zm6-6h2a1 1 0 011 1v2a1 1 0 01-1 1h-2a1 1 0 01-1-1V5a1 1 0 011-1zm0 6h2a1 1 0 011 1v2a1 1 0 01-1 1h-2a1 1 0 01-1-1v-2a1 1 0 011-1zm6-6h2a1 1 0 011 1v2a1 1 0 01-1 1h-2a1 1 0 01-1-1V5a1 1 0 011-1zm0 6h2a1 1 0 011 1v2a1 1 0 01-1 1h-2a1 1 0 01-1-1v-2a1 1 0 011-1zM5 16h2a1 1 0 011 1v2a1 1 0 01-1 1H5a1 1 0 01-1-1v-2a1 1 0 011-1zm6 0h2a1 1 0 011 1v2a1 1 0 01-1 1h-2a1 1 0 01-1-1v-2a1 1 0 011-1zm6 0h2a1 1 0 011 1v2a1 1 0 01-1 1h-2a1 1 0 01-1-1v-2a1 1 0 011-1z"/></g></svg>