<svg xmlns="http://www.w3.org/2000/svg" width="24" height="24" viewBox="0 0 24 24"><g fill="none" fill-rule="evenodd"><path d="M0 0h24v24H0z"/><rect width="2" height="12" x="5" y="5" fill="#335EEA" opacity=".3" rx="1" transform="rotate(-180 6 11)"/><path fill="#335EEA" d="M8.293 14.293a1 1 0 111.414 1.414l-3 3a1 1 0 01-1.414 0l-3-3a1 1 0 011.414-1.414L6 16.586l2.293-2.293z"/><rect width="2" height="12" x="17" y="7" fill="#335EEA" opacity=".3" rx="1" transform="matrix(-1 0 0 1 36 0)"/><path fill="#335EEA" d="M20.293 9.707a1 1 0 001.414-1.414l-3-3a1 1 0 00-1.414 0l-3 3a1 1 0 101.414 1.414L18 7.414l2.293 2.293z"/></g></svg>