<svg xmlns="http://www.w3.org/2000/svg" width="24" height="24" viewBox="0 0 24 24"><g fill="none" fill-rule="evenodd"><path d="M0 0h24v24H0z"/><path fill="#335EEA" d="M18.5 8a2.5 2.5 0 110-5 2.5 2.5 0 010 5zm0 13a2.5 2.5 0 110-5 2.5 2.5 0 010 5zm-13 0a2.5 2.5 0 110-5 2.5 2.5 0 010 5z" opacity=".3"/><path fill="#335EEA" d="M5.5 8a2.5 2.5 0 110-5 2.5 2.5 0 010 5zM11 4h2a1 1 0 010 2h-2a1 1 0 010-2zm0 14h2a1 1 0 010 2h-2a1 1 0 010-2zm-6-8a1 1 0 011 1v2a1 1 0 01-2 0v-2a1 1 0 011-1zm14 0a1 1 0 011 1v2a1 1 0 01-2 0v-2a1 1 0 011-1z"/></g></svg>