<svg xmlns="http://www.w3.org/2000/svg" width="24" height="24" viewBox="0 0 24 24"><g fill="none" fill-rule="evenodd"><path d="M0 0h24v24H0z"/><path fill="#335EEA" d="M3.5 21h17a1.5 1.5 0 001.5-1.5v-11A1.5 1.5 0 0020.5 7H10L7.44 4.44A1.5 1.5 0 006.378 4H3.5A1.5 1.5 0 002 5.5v14A1.5 1.5 0 003.5 21z" opacity=".3"/><rect width="3.143" height="3.143" x="7.413" y="12.556" fill="#335EEA" opacity=".3" rx=".75" transform="rotate(-45 8.984 14.127)"/><rect width="3.143" height="3.143" x="13.699" y="12.556" fill="#335EEA" opacity=".3" rx=".75" transform="rotate(-45 15.27 14.127)"/><rect width="3.143" height="3.143" x="10.556" y="15.699" fill="#335EEA" rx=".75" transform="rotate(-45 12.127 17.27)"/><rect width="3.143" height="3.143" x="10.556" y="9.413" fill="#335EEA" rx=".75" transform="rotate(-45 12.127 10.984)"/></g></svg>